<svg xmlns="http://www.w3.org/2000/svg" version="1.1" xmlns:xlink="http://www.w3.org/1999/xlink" xmlns:svgjs="http://svgjs.com/svgjs" width="1440" height="560" preserveAspectRatio="none" viewBox="0 0 1440 560"><g mask="url(&quot;#SvgjsMask1257&quot;)" fill="none"><rect width="1440" height="560" x="0" y="0" fill="url(#SvgjsLinearGradient1258)"></rect><rect width="358.2" height="358.2" clip-path="url(&quot;#SvgjsClipPath1259&quot;)" x="1077.88" y="237.38" fill="url(#SvgjsPattern1260)" transform="rotate(343.72, 1256.98, 416.48)"></rect><path d="M1245.5900000000001 409.42 L1204.77 479.11L1266.0551542017965 485.1401542017965z" fill="#d3b714"></path><path d="M1171.1 244.3a5.6 5.6 0 1 0-11.15 0.98 5.6 5.6 0 1 0 11.15-0.98zM1155.16 245.7a5.6 5.6 0 1 0-11.15 0.98 5.6 5.6 0 1 0 11.15-0.98zM1139.23 247.1a5.6 5.6 0 1 0-11.16 0.99 5.6 5.6 0 1 0 11.16-0.99zM1123.29 248.51a5.6 5.6 0 1 0-11.16 0.98 5.6 5.6 0 1 0 11.16-0.98zM1201.58 225.55a5.6 5.6 0 1 0-11.16 0.99 5.6 5.6 0 1 0 11.16-0.99zM1185.64 226.96a5.6 5.6 0 1 0-11.16 0.98 5.6 5.6 0 1 0 11.16-0.98zM1169.7 228.36a5.6 5.6 0 1 0-11.16 0.98 5.6 5.6 0 1 0 11.16-0.98zM1153.76 229.76a5.6 5.6 0 1 0-11.16 0.99 5.6 5.6 0 1 0 11.16-0.99zM1232.05 206.81a5.6 5.6 0 1 0-11.16 0.98 5.6 5.6 0 1 0 11.16-0.98zM1216.11 208.21a5.6 5.6 0 1 0-11.15 0.99 5.6 5.6 0 1 0 11.15-0.99zM1200.17 209.62a5.6 5.6 0 1 0-11.15 0.98 5.6 5.6 0 1 0 11.15-0.98zM1184.24 211.02a5.6 5.6 0 1 0-11.16 0.98 5.6 5.6 0 1 0 11.16-0.98z" stroke="#037b0b" stroke-width="1"></path><rect width="372" height="372" clip-path="url(&quot;#SvgjsClipPath1261&quot;)" x="435.74" y="173.17" fill="url(#SvgjsPattern1262)" transform="rotate(285.51, 621.74, 359.17)"></rect><circle r="46.666666666666664" cx="781.86" cy="281.08" stroke="#d3b714" stroke-width="1" stroke-dasharray="3, 3"></circle><rect width="228" height="228" clip-path="url(&quot;#SvgjsClipPath1263&quot;)" x="1074.64" y="-12.78" fill="url(#SvgjsPattern1264)" transform="rotate(84.81, 1188.64, 101.22)"></rect><path d="M1394.93 92.68a5.6 5.6 0 1 0-6.71-8.97 5.6 5.6 0 1 0 6.71 8.97zM1385.34 79.87a5.6 5.6 0 1 0-6.71-8.97 5.6 5.6 0 1 0 6.71 8.97zM1375.76 67.06a5.6 5.6 0 1 0-6.71-8.97 5.6 5.6 0 1 0 6.71 8.97zM1366.17 54.25a5.6 5.6 0 1 0-6.71-8.97 5.6 5.6 0 1 0 6.71 8.97zM1426.91 108.72a5.6 5.6 0 1 0-6.71-8.97 5.6 5.6 0 1 0 6.71 8.97zM1417.32 95.91a5.6 5.6 0 1 0-6.71-8.97 5.6 5.6 0 1 0 6.71 8.97zM1407.74 83.1a5.6 5.6 0 1 0-6.71-8.97 5.6 5.6 0 1 0 6.71 8.97zM1398.15 70.29a5.6 5.6 0 1 0-6.71-8.97 5.6 5.6 0 1 0 6.71 8.97zM1458.89 124.76a5.6 5.6 0 1 0-6.71-8.97 5.6 5.6 0 1 0 6.71 8.97zM1449.3 111.95a5.6 5.6 0 1 0-6.71-8.97 5.6 5.6 0 1 0 6.71 8.97zM1439.72 99.14a5.6 5.6 0 1 0-6.71-8.97 5.6 5.6 0 1 0 6.71 8.97zM1430.13 86.33a5.6 5.6 0 1 0-6.71-8.97 5.6 5.6 0 1 0 6.71 8.97z" stroke="#037b0b" stroke-width="1" stroke-dasharray="2, 2"></path><path d="M699.82 394.84L705.31 406.41 695.22 414.3 700.71 425.87 690.62 433.76 696.11 445.33 686.02 453.23M692.04 393L697.52 404.57 687.44 412.46 692.92 424.03 682.84 431.92 688.32 443.49 678.24 451.39" stroke="#037b0b" stroke-width="2.33"></path><rect width="204" height="204" clip-path="url(&quot;#SvgjsClipPath1265&quot;)" x="274.97" y="258.67" fill="url(#SvgjsPattern1266)" transform="rotate(229.97, 376.97, 360.67)"></rect><path d="M508.68999999999994 403.62 L425.62 451.13L532.9757971918543 493.1957971918543z" stroke="#d3b714" stroke-width="2.05" stroke-dasharray="4, 4"></path><rect width="312" height="312" clip-path="url(&quot;#SvgjsClipPath1267&quot;)" x="1160.83" y="379.54" fill="url(#SvgjsPattern1268)" transform="rotate(299.82, 1316.83, 535.54)"></rect><rect width="190.08" height="190.08" clip-path="url(&quot;#SvgjsClipPath1269&quot;)" x="506.05" y="100.92" fill="url(#SvgjsPattern1270)" transform="rotate(348.55, 601.09, 195.96)"></rect></g><defs><mask id="SvgjsMask1257"><rect width="1440" height="560" fill="#ffffff"></rect></mask><linearGradient x1="15.28%" y1="-39.29%" x2="84.72%" y2="139.29%" gradientUnits="userSpaceOnUse" id="SvgjsLinearGradient1258"><stop stop-color="#0e2a47" offset="0"></stop><stop stop-color="#00459e" offset="1"></stop></linearGradient><pattern x="0" y="0" width="11.94" height="11.94" patternUnits="userSpaceOnUse" id="SvgjsPattern1260"><path d="M0 11.94L5.97 0L11.94 11.94" stroke="#e73635" fill="none"></path></pattern><clipPath id="SvgjsClipPath1259"><circle r="89.55" cx="1256.98" cy="416.48"></circle></clipPath><pattern x="0" y="0" width="6" height="6" patternUnits="userSpaceOnUse" id="SvgjsPattern1262"><path d="M0 6L3 0L6 6" stroke="#d3b714" fill="none"></path></pattern><clipPath id="SvgjsClipPath1261"><circle r="93" cx="621.74" cy="359.17"></circle></clipPath><pattern x="0" y="0" width="6" height="6" patternUnits="userSpaceOnUse" id="SvgjsPattern1264"><path d="M0 6L3 0L6 6" stroke="#e73635" fill="none"></path></pattern><clipPath id="SvgjsClipPath1263"><circle r="57" cx="1188.64" cy="101.22"></circle></clipPath><pattern x="0" y="0" width="6" height="6" patternUnits="userSpaceOnUse" id="SvgjsPattern1266"><path d="M3 1L3 5M1 3L5 3" stroke="#037b0b" fill="none" stroke-width="1.5"></path></pattern><clipPath id="SvgjsClipPath1265"><circle r="51" cx="376.97" cy="360.67"></circle></clipPath><pattern x="0" y="0" width="6" height="6" patternUnits="userSpaceOnUse" id="SvgjsPattern1268"><path d="M3 1L3 5M1 3L5 3" stroke="#e73635" fill="none" stroke-width="1.93"></path></pattern><clipPath id="SvgjsClipPath1267"><circle r="78" cx="1316.83" cy="535.54"></circle></clipPath><pattern x="0" y="0" width="10.56" height="10.56" patternUnits="userSpaceOnUse" id="SvgjsPattern1270"><path d="M0 10.56L5.28 0L10.56 10.56" stroke="#e73635" fill="none"></path></pattern><clipPath id="SvgjsClipPath1269"><circle r="47.52" cx="601.09" cy="195.96"></circle></clipPath></defs></svg>